# xmcd
#
# Track frame offsets:
#	150
#	13407
#	28124
#	41581
#	51688
#	66068
#	78644
#	102062
#	116430
#	135894
#	150509
#	164117
#	177300
#	188675
#	201838
#	213845
#	227582
#
# Disc length: 3313 seconds
#
# Revision: 2
# Processed by: cddbd v1.5.1PL2 Copyright (c) Steve Scherf et al.
# Submitted via: EasyCDDAExtractor 9.0.0.1
#
DISCID=e70cef11
DTITLE=Waylon Jennings - Legends - Disc 2 of 3
DYEAR=2002
DGENRE=Country
TTITLE0=Are You Sure Hank Done It This Way
TTITLE1=Games People Play
TTITLE2=Good Hearted Woman (Live)
TTITLE3=Ruby, Don't Take Your Love To Town
TTITLE4=No Regrets
TTITLE5=I'm A Ramblin' Man
TTITLE6=Macarthur Park
TTITLE7=Endangerd Species
TTITLE8=Waymore's Blues Part II
TTITLE9=Folsom Prison Blues
TTITLE10=Nobody Knows
TTITLE11=Love Of The Common People
TTITLE12=She's Looking Good
TTITLE13=It Doesn't Matter Anymore
TTITLE14=The Door Is Always Open
TTITLE15=It'll Be Her
TTITLE16=Me And Bobby Mcgee
EXTD=
EXTT0=
EXTT1=
EXTT2=
EXTT3=
EXTT4=
EXTT5=
EXTT6=
EXTT7=
EXTT8=
EXTT9=
EXTT10=
EXTT11=
EXTT12=
EXTT13=
EXTT14=
EXTT15=
EXTT16=
PLAYORDER=
